<?xml version="1.0" standalone="no"?>
<!DOCTYPE svg PUBLIC "-//W3C//DTD SVG 20010904//EN"
 "http://www.w3.org/TR/2001/REC-SVG-20010904/DTD/svg10.dtd">
<svg version="1.0" xmlns="http://www.w3.org/2000/svg"
 width="600.000000pt" height="600.000000pt" viewBox="0 0 600.000000 600.000000"
 preserveAspectRatio="xMidYMid meet">
<metadata>
Created by potrace 1.11, written by Peter Selinger 2001-2013
</metadata>
<g transform="translate(0.000000,600.000000) scale(0.100000,-0.100000)"
fill="#000000" stroke="none">
<path d="M2076 4164 c-3 -9 -6 -28 -5 -42 0 -24 1 -25 9 -7 9 20 9 20 9 0 1
-12 -24 -45 -64 -82 -61 -59 -64 -61 -58 -33 6 30 -13 90 -28 90 -26 0 -38
-76 -17 -113 l12 -22 7 25 7 25 1 -25 c0 -14 -12 -40 -27 -59 l-28 -33 3 33
c4 37 -30 105 -47 94 -17 -10 -23 -74 -10 -105 17 -42 32 -37 26 8 l-5 37 11
-41 c9 -37 8 -45 -13 -74 l-24 -32 -6 37 c-6 37 -39 90 -55 90 -11 0 -21 -52
-16 -85 2 -14 13 -37 24 -50 l19 -25 -5 40 c-4 26 -3 35 3 25 16 -27 15 -64
-4 -100 l-18 -35 -13 44 c-15 51 -63 108 -76 89 -22 -36 -1 -126 38 -159 15
-13 16 -12 10 11 -16 54 -15 63 3 27 18 -38 18 -40 -3 -89 -14 -33 -22 -44
-24 -32 -8 50 -15 66 -43 99 -17 19 -35 35 -40 35 -15 0 -10 -89 6 -120 8 -16
24 -34 35 -40 19 -10 19 -9 5 30 -18 51 -11 52 13 1 18 -36 18 -40 2 -81 l-17
-44 -12 37 c-12 34 -70 97 -91 97 -32 0 7 -129 45 -154 29 -19 41 -21 27 -3
-6 7 -16 26 -22 41 -9 25 -9 27 4 17 28 -23 37 -72 23 -126 l-13 -50 -19 38
c-16 34 -76 87 -97 87 -13 0 -9 -48 6 -84 15 -37 53 -76 73 -76 9 0 7 9 -8 30
-13 16 -20 32 -17 35 3 3 17 -9 31 -28 23 -30 24 -37 16 -85 -11 -57 -16 -104
-18 -172 l-1 -45 -20 32 c-22 37 -54 60 -100 73 -31 9 -32 9 -25 -18 11 -46
44 -89 79 -106 38 -18 73 -22 44 -6 -9 6 -27 25 -40 43 l-23 32 32 -25 c40
-32 50 -53 58 -120 l6 -55 -20 29 c-22 33 -59 55 -108 67 -39 8 -40 2 -12 -52
14 -29 32 -46 62 -60 64 -28 74 -23 31 17 l-39 36 35 -20 c41 -24 55 -50 63
-112 6 -43 5 -44 -11 -24 -25 32 -62 51 -109 59 -49 8 -51 3 -23 -43 25 -40
75 -72 115 -72 l30 0 -38 25 c-50 35 -47 43 5 12 33 -19 44 -34 55 -68 18 -61
17 -63 -19 -38 -31 22 -138 41 -138 24 0 -23 55 -75 94 -90 55 -21 100 -12 50
10 -18 7 -35 18 -38 24 -10 16 2 14 43 -10 27 -15 41 -33 57 -73 l21 -53 -35
23 c-37 25 -125 34 -137 14 -10 -16 52 -68 93 -81 24 -7 46 -7 62 -1 l25 9
-32 7 c-30 7 -56 26 -35 26 38 0 69 -25 99 -80 l32 -58 -36 24 c-35 24 -83 30
-130 18 -34 -9 -28 -21 24 -54 31 -20 60 -30 84 -30 53 0 56 15 8 29 -54 16
-44 25 12 11 36 -9 50 -20 76 -59 l31 -48 -42 15 c-36 13 -49 14 -90 2 -26 -7
-45 -18 -43 -24 5 -18 89 -56 122 -56 17 0 40 7 51 15 18 14 17 14 -16 15 -19
1 -44 6 -55 11 -14 6 -3 8 35 4 55 -6 78 -23 110 -77 9 -15 6 -16 -22 -7 -35
10 -91 -1 -123 -25 -19 -14 -18 -16 25 -35 53 -24 95 -26 130 -6 l25 14 -30 1
c-16 1 -39 5 -50 10 -15 7 -6 9 32 8 47 -1 56 -6 92 -42 l40 -41 -48 3 c-35 3
-60 -2 -92 -19 l-44 -22 40 -18 c51 -23 97 -24 138 -2 l32 18 -50 6 -50 6 50
1 c44 2 56 -3 95 -34 37 -31 41 -36 19 -31 -33 8 -90 -8 -124 -35 l-27 -21 23
-13 c33 -18 94 -17 135 2 52 25 50 34 -3 29 -35 -4 -42 -3 -28 4 36 17 74 11
122 -19 l47 -30 -32 0 c-52 0 -148 -57 -129 -77 4 -3 28 -8 55 -11 51 -4 96
11 123 44 12 15 12 16 -6 11 -11 -3 -33 -9 -50 -12 -30 -5 -30 -5 4 11 39 17
55 19 91 9 l25 -7 -27 25 c-14 15 -29 40 -33 57 -11 48 1 47 18 -2 l14 -43 8
36 c8 41 -13 100 -47 136 -16 18 -24 20 -30 11 -13 -22 -9 -107 8 -140 l16
-30 -45 31 c-49 33 -57 47 -56 94 1 29 2 28 13 -13 9 -34 14 -41 19 -27 18 47
-8 150 -43 172 -25 15 -41 -106 -20 -146 15 -27 1 -23 -39 11 -27 23 -34 37
-38 77 -3 36 -2 44 6 33 6 -8 11 -31 12 -50 l1 -35 15 35 c18 42 12 98 -15
142 l-20 31 -17 -33 c-17 -33 -23 -109 -9 -132 4 -7 -11 4 -34 26 -38 36 -40
41 -36 84 6 65 14 65 15 1 l1 -54 20 45 c18 40 19 50 9 90 -20 76 -34 80 -61
18 -19 -44 -21 -59 -13 -91 l10 -37 -33 37 c-27 31 -33 46 -34 85 0 26 5 50
11 53 7 5 8 -7 4 -39 -4 -25 -4 -46 -1 -46 4 0 16 21 27 46 18 40 19 51 9 95
-7 27 -15 51 -19 53 -14 9 -53 -64 -59 -111 l-7 -48 -23 36 c-23 38 -27 80
-11 114 7 14 8 8 4 -24 -6 -44 -6 -45 14 -27 28 26 44 81 36 124 -10 51 -14
56 -37 35 -30 -27 -48 -68 -49 -110 l0 -38 -26 52 c-26 51 -26 51 -9 98 23 58
32 53 12 -6 -8 -24 -14 -44 -12 -46 1 -2 15 11 31 27 25 26 30 40 33 95 3 40
0 65 -6 65 -15 0 -71 -67 -77 -93 -2 -12 -6 -33 -7 -47 -2 -20 -7 -13 -24 32
l-22 58 21 42 c12 23 22 37 25 30 2 -6 -4 -24 -13 -41 -20 -39 -7 -40 30 -1
22 23 29 41 33 85 5 61 -1 66 -42 34 -32 -25 -48 -53 -55 -98 -6 -33 -6 -32
-22 25 -16 59 -15 60 8 98 14 21 27 35 31 32 3 -4 -4 -20 -16 -36 -29 -39 -28
-43 9 -25 18 10 38 33 50 58 19 44 25 97 10 97 -22 0 -78 -50 -96 -85 l-19
-40 -7 30 c-13 57 -9 75 22 107 33 35 29 18 -4 -19 -26 -30 -5 -30 35 -1 31
21 67 87 68 121 0 40 -89 -14 -120 -71 l-19 -37 -1 57 c0 47 5 62 26 87 14 17
31 31 37 31 6 0 -4 -16 -23 -35 -35 -36 -28 -45 18 -21 38 20 59 46 76 94 18
49 12 51 -51 22 -25 -11 -51 -33 -63 -52 l-20 -33 0 70 c0 41 4 65 9 57 6 -10
10 -10 21 3 7 9 23 21 34 27 14 7 9 -2 -13 -26 -39 -41 -29 -46 30 -16 28 15
46 34 61 65 12 25 19 47 16 50 -14 14 -91 -20 -118 -52 -17 -19 -30 -27 -30
-20 0 39 14 106 21 102 4 -3 10 -1 14 5 3 6 21 17 38 26 l32 15 -27 -24 c-15
-14 -33 -27 -40 -30 -7 -2 -10 -8 -6 -12 15 -16 98 26 123 63 32 47 31 52 -5
52 -37 0 -88 -24 -113 -54 -18 -21 -18 -21 -11 14 3 19 11 46 17 60 6 14 10
27 9 30 0 3 7 6 16 6 9 1 26 4 37 8 18 7 18 6 3 -6 -9 -7 -25 -18 -35 -25 -16
-11 -15 -12 10 -12 51 -1 136 58 137 97 0 27 -99 6 -138 -30 l-24 -23 7 25
c17 56 25 67 54 80 43 17 52 5 10 -14 l-34 -14 38 -1 c44 -1 89 20 111 51 24
33 20 38 -28 38 -29 0 -55 -8 -80 -25 l-36 -24 16 37 c9 20 18 43 21 49 3 7 8
11 13 8 4 -2 22 0 40 5 50 14 48 4 -2 -13 -42 -14 -43 -15 -15 -22 38 -10 71
0 113 37 32 29 34 33 18 39 -34 14 -79 9 -116 -11 l-37 -20 26 43 c20 35 31
43 57 45 l31 1 -30 -13 -30 -13 28 -7 c42 -10 145 40 124 61 -15 15 -86 14
-117 -2 l-33 -17 29 40 c16 23 31 36 33 31 11 -32 104 -27 132 7 10 13 10 17
-2 25 -20 12 -76 11 -102 -3 -20 -10 -20 -9 4 23 20 26 34 34 60 35 27 2 28 1
6 -3 -37 -6 -24 -23 18 -23 36 0 85 18 85 31 0 13 -69 31 -92 23 l-23 -6 24
26 c15 16 34 26 50 25 l26 -1 -25 -7 c-22 -6 -23 -8 -7 -14 28 -10 59 -8 86 7
l24 14 -22 11 c-12 7 -36 13 -52 13 l-30 1 32 34 c18 18 28 33 21 33 -6 0 -11
8 -10 18 4 48 -12 71 -26 36z m-123 -301 c-7 -2 -21 -2 -30 0 -10 3 -4 5 12 5
17 0 24 -2 18 -5z"/>
<path d="M3896 4155 c-4 -14 -4 -30 -1 -35 4 -6 1 -10 -6 -10 -7 0 2 -16 21
-35 l34 -35 -33 0 c-18 0 -42 -5 -53 -11 -21 -11 -21 -12 3 -25 27 -15 58 -17
86 -7 16 6 15 8 -7 14 l-25 7 26 1 c16 1 36 -10 55 -30 26 -29 27 -31 5 -19
-19 9 -33 10 -62 1 -22 -7 -39 -15 -39 -20 0 -13 49 -31 85 -31 42 0 55 17 18
23 -22 4 -21 5 6 3 26 -1 40 -9 60 -35 24 -32 24 -33 4 -23 -26 14 -82 15
-102 3 -12 -8 -12 -12 -2 -25 29 -34 121 -39 132 -7 2 6 15 -6 28 -26 20 -31
21 -35 5 -27 -24 11 -110 11 -121 1 -11 -12 43 -54 78 -61 16 -3 39 -2 51 3
22 8 21 9 -12 19 l-35 11 36 -2 c32 -1 40 -7 62 -44 l26 -43 -37 20 c-37 20
-82 25 -116 11 -16 -6 -14 -10 18 -39 42 -37 75 -47 114 -37 27 7 26 8 -16 22
-53 18 -50 26 4 12 47 -13 49 -15 68 -61 l16 -37 -36 24 c-25 17 -51 25 -80
25 -48 0 -52 -5 -28 -38 22 -31 67 -52 111 -51 l38 1 -34 14 c-42 19 -33 31
10 14 29 -12 36 -23 54 -79 l8 -25 -32 26 c-30 26 -114 48 -129 34 -12 -12 26
-61 65 -83 21 -13 52 -23 68 -23 32 1 32 0 -22 38 -17 12 -17 13 2 6 11 -4 28
-7 37 -8 9 0 15 -4 12 -7 -2 -4 0 -10 5 -13 5 -3 12 -22 15 -42 4 -19 10 -43
13 -52 3 -12 0 -11 -14 4 -25 30 -76 54 -113 54 -36 0 -37 -5 -5 -52 25 -37
108 -79 123 -63 4 4 1 10 -6 12 -7 3 -25 16 -40 30 l-27 24 32 -15 c17 -9 35
-20 38 -26 4 -6 10 -8 14 -5 5 2 11 -16 15 -42 10 -73 8 -78 -16 -48 -21 27
-89 64 -117 65 -9 0 -11 -8 -6 -27 10 -41 41 -79 79 -97 54 -26 63 -19 25 20
-34 36 -16 33 29 -5 18 -15 22 -30 22 -73 l0 -53 -20 33 c-12 19 -38 41 -63
52 -60 28 -67 26 -57 -11 13 -45 37 -77 73 -99 51 -32 65 -24 27 15 -19 19
-29 35 -24 35 6 0 22 -13 37 -28 23 -24 27 -37 27 -88 l0 -59 -23 40 c-21 37
-101 95 -113 82 -3 -3 -2 -22 2 -43 8 -43 70 -114 100 -114 16 0 16 2 -2 23
-39 44 -48 61 -16 33 40 -37 44 -50 34 -106 l-8 -45 -19 40 c-18 35 -74 85
-96 85 -15 0 -9 -53 10 -97 12 -26 32 -48 52 -58 l32 -17 -23 37 c-12 20 -20
38 -17 41 3 3 16 -11 30 -32 23 -38 24 -39 8 -98 -16 -57 -16 -58 -22 -25 -7
45 -23 73 -55 98 -37 29 -44 27 -44 -18 0 -50 13 -83 41 -110 32 -30 42 -26
24 10 -9 17 -15 35 -13 41 2 6 13 -8 25 -32 l20 -43 -21 -54 c-16 -40 -22 -48
-24 -31 -1 13 -5 33 -7 45 -6 26 -62 93 -77 93 -6 0 -9 -25 -6 -65 3 -55 8
-69 33 -95 16 -16 30 -28 32 -26 2 1 -4 20 -12 41 -9 20 -14 40 -11 43 7 6 36
-61 36 -80 -1 -7 -12 -33 -25 -58 l-24 -45 -1 41 c0 29 -9 53 -30 83 -35 47
-46 46 -56 -5 -8 -44 9 -104 37 -130 20 -18 20 -18 15 9 -3 15 -8 39 -11 54
l-4 28 14 -30 c21 -45 18 -85 -11 -127 -15 -21 -27 -38 -28 -38 0 0 -1 22 -1
48 0 61 -42 133 -62 106 -24 -32 -26 -90 -4 -138 11 -25 23 -46 26 -46 4 0 4
24 0 53 -9 63 1 59 14 -5 8 -43 6 -49 -26 -90 -19 -23 -36 -44 -38 -46 -1 -1
2 14 8 35 8 32 6 47 -13 91 -27 62 -41 58 -61 -18 -10 -40 -9 -50 9 -90 l20
-45 1 54 c1 66 11 63 13 -4 0 -43 -3 -51 -42 -89 -30 -29 -39 -34 -30 -17 17
33 15 93 -5 132 l-17 32 -20 -31 c-27 -44 -33 -100 -15 -142 l15 -35 1 35 c1
19 6 42 12 50 8 11 9 3 6 -31 -3 -37 -11 -53 -38 -78 -39 -35 -54 -40 -39 -12
14 27 12 101 -4 130 l-13 24 -28 -41 c-19 -29 -27 -53 -27 -86 0 -67 14 -79
28 -26 11 41 12 43 13 13 1 -47 -7 -61 -56 -94 l-45 -31 16 30 c17 33 21 118
7 140 -6 10 -14 6 -33 -16 -38 -45 -51 -86 -43 -129 l8 -38 14 43 c17 49 29
50 18 2 -4 -17 -19 -42 -33 -57 l-27 -25 25 7 c36 10 52 8 91 -9 34 -16 34
-16 4 -11 -16 3 -39 9 -50 12 -18 5 -18 4 -6 -11 22 -26 66 -46 103 -46 43 0
78 10 78 21 0 19 -94 69 -129 69 l-35 0 47 30 c48 30 86 36 122 19 14 -7 7 -8
-28 -4 -53 5 -55 -4 -3 -29 41 -19 102 -20 135 -2 l23 13 -27 21 c-34 27 -91
43 -124 35 -22 -5 -18 0 19 31 39 31 51 36 95 34 l50 -1 -50 -6 -50 -6 32 -18
c18 -9 46 -17 63 -17 35 0 100 25 100 38 0 19 -78 44 -124 41 l-45 -4 41 42
c39 40 46 43 93 42 37 0 45 -3 30 -9 -11 -5 -33 -9 -50 -10 l-30 -1 25 -14
c35 -20 77 -18 130 6 43 19 44 21 25 35 -32 24 -88 35 -123 25 -28 -9 -31 -8
-22 7 33 56 56 72 111 77 38 4 48 3 34 -4 -11 -5 -36 -10 -55 -11 -33 -1 -34
-1 -16 -15 11 -8 34 -15 51 -15 33 0 117 38 122 56 2 6 -17 17 -43 24 -41 12
-54 11 -90 -2 l-42 -15 31 48 c26 39 40 50 76 59 24 6 46 9 49 6 2 -3 -16 -11
-41 -18 -52 -13 -45 -28 14 -28 35 0 129 50 129 69 0 10 -48 21 -90 21 -15 0
-43 -11 -63 -24 l-35 -24 30 57 c27 53 59 79 97 81 21 0 4 -13 -32 -26 l-32
-12 27 -7 c15 -4 43 -2 62 5 42 13 100 65 91 80 -12 20 -100 11 -137 -14 l-35
-23 21 53 c16 40 30 58 57 73 41 24 53 26 43 10 -3 -6 -20 -17 -38 -24 -26
-11 -28 -15 -13 -20 31 -12 105 23 132 63 l25 37 -26 3 c-47 6 -92 -8 -124
-38 -20 -19 -30 -24 -25 -13 4 10 12 39 18 66 7 26 17 47 23 47 6 0 17 6 23
14 11 13 51 29 51 20 0 -2 -17 -15 -37 -29 l-38 -25 28 0 c41 0 83 25 112 67
14 21 25 41 25 46 0 10 -76 -1 -105 -15 -11 -5 -30 -22 -42 -36 l-22 -26 6 45
c8 61 22 87 63 111 l35 20 -39 -36 c-43 -40 -37 -44 24 -20 29 12 48 29 65 59
35 58 33 65 -16 54 -50 -12 -76 -28 -101 -66 l-18 -28 6 60 c8 66 16 83 60
117 25 19 27 20 15 3 -8 -11 -26 -30 -40 -42 -31 -27 -14 -30 35 -7 35 17 68
60 79 106 7 27 6 27 -25 18 -46 -13 -78 -36 -99 -71 l-18 -30 -6 58 c-5 56 -4
59 30 93 37 36 36 23 0 -17 -32 -36 4 -30 46 7 31 27 68 112 55 125 -3 3 -25
-5 -49 -18 -31 -16 -51 -36 -65 -65 l-22 -42 -11 61 c-10 59 -9 63 16 95 32
42 44 37 13 -5 -15 -23 -18 -31 -8 -31 19 0 64 49 77 83 13 33 14 77 3 77 -22
0 -82 -54 -99 -90 l-19 -42 -13 55 c-10 46 -10 61 2 90 19 43 42 62 26 20 -5
-15 -15 -33 -21 -40 -6 -7 -6 -13 -1 -13 17 0 55 42 69 76 16 38 19 94 4 94
-21 0 -79 -63 -91 -97 l-12 -37 -17 45 c-17 42 -17 45 1 82 25 47 34 48 14 1
-19 -46 -19 -47 4 -35 10 6 26 26 35 45 16 35 22 116 8 116 -4 0 -23 -15 -41
-34 -23 -23 -34 -46 -38 -77 l-6 -43 -22 50 c-22 49 -19 92 7 119 10 10 9 4
-9 -60 -5 -18 -4 -18 11 -6 39 33 57 105 38 154 -7 16 -10 15 -35 -11 -16 -16
-34 -49 -41 -73 l-13 -44 -18 35 c-19 36 -20 73 -4 100 6 10 7 2 3 -22 -8 -46
0 -49 21 -8 16 31 20 97 6 118 -6 11 -13 7 -30 -14 -26 -33 -35 -65 -28 -101
l5 -27 -19 25 c-38 50 -43 66 -31 101 l11 33 -5 -35 -5 -35 22 25 c16 19 20
33 16 64 -8 57 -22 65 -47 25 -13 -22 -20 -46 -17 -68 l3 -33 -28 33 c-15 19
-27 45 -27 59 l1 25 7 -25 7 -25 12 22 c21 37 9 113 -17 113 -15 0 -33 -59
-29 -90 5 -30 3 -29 -59 32 -34 34 -63 69 -63 78 0 13 1 13 10 0 8 -12 10 -9
10 12 0 56 -23 78 -34 33z m187 -292 c-7 -2 -21 -2 -30 0 -10 3 -4 5 12 5 17
0 24 -2 18 -5z"/>
<path d="M2139 4149 c-15 -15 -18 -24 -11 -31 14 -14 62 16 62 37 0 22 -27 18
-51 -6z"/>
<path d="M3810 4155 c0 -21 48 -51 62 -37 7 7 4 16 -11 31 -24 24 -51 28 -51
6z"/>
<path d="M2002 4135 c-14 -30 -15 -55 -5 -82 6 -16 8 -15 14 7 7 24 7 25 8 2
1 -13 6 -20 11 -17 14 9 12 78 -3 99 -12 17 -14 16 -25 -9z"/>
<path d="M3966 4128 c-13 -29 -14 -43 -5 -65 l12 -28 7 25 8 25 1 -25 c1 -20
3 -22 11 -10 14 21 12 61 -5 90 l-14 25 -15 -37z"/>
<path d="M2116 4088 c-18 -10 -18 -12 -3 -23 18 -13 67 -9 67 6 0 7 -33 30
-42 29 -2 0 -12 -6 -22 -12z"/>
<path d="M3838 4089 c-28 -16 -21 -29 16 -29 41 0 54 15 27 29 -23 13 -22 13
-43 0z"/>
<path d="M2992 3594 c-51 -35 -47 -78 12 -133 17 -16 26 -35 26 -56 0 -53 -39
-74 -61 -33 -10 18 -8 24 11 40 18 15 21 21 11 31 -9 9 -18 8 -39 -3 -37 -21
-43 -71 -10 -94 45 -32 126 -15 147 31 20 43 13 72 -30 118 -44 48 -51 90 -14
90 16 0 20 -7 20 -30 0 -31 21 -37 37 -12 32 50 -54 90 -110 51z"/>
<path d="M1470 3289 c0 -53 67 -139 108 -139 13 0 12 4 -5 23 -34 38 -38 53
-5 23 26 -24 32 -26 32 -12 0 44 -44 93 -105 116 -22 8 -25 7 -25 -11z"/>
<path d="M2453 3130 c-49 -20 -72 -110 -30 -118 13 -3 17 3 17 23 0 37 17 65
40 65 24 0 24 -3 0 -114 -27 -121 -26 -128 7 -124 26 3 28 8 51 119 l24 115
45 0 c38 -1 47 3 54 22 8 22 8 22 -89 21 -53 0 -107 -4 -119 -9z"/>
<path d="M3379 3125 c-51 -28 -62 -104 -16 -113 11 -2 14 2 10 17 -7 26 19 67
47 74 16 4 20 2 16 -11 -8 -28 -46 -211 -46 -222 0 -16 50 -12 57 5 3 9 15 62
27 118 l22 102 41 -3 c33 -3 44 0 52 17 6 11 11 22 11 25 0 13 -196 5 -221 -9z"/>
<path d="M3003 2670 c-30 -12 -55 -53 -47 -76 4 -10 22 -36 41 -57 24 -27 33
-47 33 -72 0 -39 -21 -55 -48 -38 -24 15 -25 30 -3 50 12 9 21 21 21 25 0 13
-55 9 -68 -4 -14 -14 -16 -57 -4 -76 14 -21 68 -31 107 -21 76 21 85 102 19
170 -40 41 -42 72 -5 77 22 3 23 1 18 -27 -7 -33 8 -42 31 -19 43 43 -29 95
-95 68z"/>
<path d="M2500 1787 c0 -9 -10 -23 -22 -32 -16 -12 -19 -19 -10 -22 7 -3 18
-17 23 -31 7 -19 13 -22 21 -14 7 7 23 12 36 12 19 0 22 4 17 20 -3 10 -1 29
6 41 10 20 9 21 -12 16 -15 -4 -30 0 -41 10 -16 15 -18 15 -18 0z"/>
<path d="M3481 1786 c-9 -11 -22 -14 -38 -10 -23 6 -24 5 -14 -15 7 -12 9 -31
6 -41 -5 -16 -2 -20 17 -20 13 0 29 -5 36 -12 8 -8 14 -5 21 14 5 14 16 28 23
31 10 4 8 9 -5 17 -10 7 -22 21 -26 32 -6 18 -8 18 -20 4z"/>
<path d="M2730 1712 c0 -9 -10 -23 -22 -31 l-22 -14 22 -8 c12 -5 26 -18 30
-30 7 -19 9 -19 21 -5 8 9 24 16 38 16 23 0 23 1 9 22 -11 16 -12 26 -4 41 9
18 8 19 -16 15 -15 -3 -29 -1 -32 3 -9 15 -24 10 -24 -9z"/>
<path d="M3246 1721 c-3 -4 -17 -6 -32 -3 -24 4 -25 3 -16 -15 8 -15 7 -25 -4
-41 -14 -21 -14 -22 9 -22 14 0 30 -7 38 -16 12 -14 14 -14 21 5 4 12 18 25
30 30 l22 8 -22 14 c-12 8 -22 22 -22 31 0 19 -15 24 -24 9z"/>
<path d="M2960 1686 c0 -14 -4 -28 -10 -31 -17 -10 -11 -25 9 -25 11 0 23 -9
26 -20 3 -11 10 -20 15 -20 5 0 12 9 15 20 3 11 15 20 26 20 20 0 26 15 9 25
-5 3 -10 17 -10 31 0 22 -3 23 -20 14 -14 -8 -26 -8 -40 0 -17 9 -20 8 -20
-14z"/>
</g>
</svg>
