<?xml version="1.0" ?><svg enable-background="new 0 0 543 135.992" id="Layer_1" version="1.1" viewBox="0 0 543 135.992" xml:space="preserve" xmlns="http://www.w3.org/2000/svg" xmlns:xlink="http://www.w3.org/1999/xlink"><g><path d="M144.039,98.272V43.761h7.051l33.357,43.912V43.761h6.669v54.511h-7.051l-33.354-44.298v44.298   L144.039,98.272L144.039,98.272z" fill="#CBCBCB"/><path d="M245.245,96.138c-4.395,1.68-9.137,2.516-14.219,2.516c-19.743,0-29.618-9.465-29.618-28.4   c0-17.916,9.53-26.876,28.587-26.876c5.467,0,10.551,0.765,15.25,2.291v6.098c-4.698-1.779-9.53-2.67-14.488-2.67   c-14.864,0-22.294,7.054-22.294,21.156c0,15.12,7.314,22.683,21.956,22.683c2.335,0,4.927-0.307,7.775-0.918V73.493h7.051   L245.245,96.138L245.245,96.138z" fill="#CBCBCB"/><path d="M256.491,77.231V43.765h7.047v33.466c0,10.47,5.211,15.711,15.633,15.711   c10.418,0,15.628-5.241,15.628-15.711V43.765h7.051v33.466c0,14.287-7.561,21.427-22.679,21.427   C264.051,98.657,256.491,91.518,256.491,77.231L256.491,77.231z" fill="#CBCBCB"/><path d="M321.48,43.762v48.795H350v5.716h-35.568V43.762L321.48,43.762L321.48,43.762z" fill="#CBCBCB"/><path d="M360.175,98.274h-7.319l27.102-61.702l27.102,61.702h-7.812l-7.056-17.155h-18.025l1.943-5.713h13.723   l-10.179-24.705L360.175,98.274z" fill="#CBCBCB"/><path d="M414.494,98.273V43.762h23.252c10.371,0,15.555,4.36,15.555,13.075c0,7.092-5.068,12.34-15.209,15.742   l18.716,25.695h-9.302l-17.343-24.51v-4.61c10.418-1.656,15.625-5.658,15.625-12.009c0-5.03-2.896-7.55-8.687-7.55h-15.556v48.679   h-7.051V98.273z" fill="#CBCBCB"/><path d="M483.226,43.762v38.807c0,10.47-6.162,15.704-18.49,15.704v-5.716c7.625,0,11.439-3.332,11.439-9.988   V43.762H483.226z" fill="#CBCBCB"/><path d="M495.805,96.366v-6.481c5.72,2.031,11.893,3.053,18.528,3.053c9.377,0,14.069-3.432,14.069-10.298   c0-5.836-3.459-8.765-10.37-8.765h-7.018c-11.407,0-17.117-4.951-17.117-14.864c0-10.418,7.311-15.632,21.926-15.632   c6.35,0,12.257,0.768,17.725,2.291v6.481c-5.468-2.035-11.374-3.052-17.725-3.052c-9.913,0-14.867,3.305-14.867,9.912   c0,5.842,3.353,8.765,10.059,8.765h7.018c11.609,0,17.421,4.959,17.421,14.864c0,10.677-7.037,16.015-21.12,16.015   C507.698,98.654,501.525,97.889,495.805,96.366L495.805,96.366z" fill="#CBCBCB"/><path d="M145.823,96.492V41.981h7.051l33.354,43.912V41.981h6.672v54.511h-7.051l-33.357-44.298v44.298H145.823z"/><path d="M247.028,94.356c-4.395,1.68-9.134,2.517-14.218,2.517c-19.743,0-29.618-9.465-29.618-28.4   c0-17.916,9.53-26.876,28.59-26.876c5.463,0,10.548,0.765,15.246,2.291v6.098c-4.698-1.779-9.53-2.67-14.485-2.67   c-14.864,0-22.297,7.054-22.297,21.156c0,15.12,7.318,22.684,21.956,22.684c2.336,0,4.931-0.305,7.778-0.919V71.712h7.048   L247.028,94.356L247.028,94.356z"/><path d="M258.274,75.449v-33.47h7.048v33.47c0,10.469,5.21,15.707,15.631,15.707c10.418,0,15.63-5.238,15.63-15.707v-33.47h7.051   v33.47c0,14.286-7.561,21.423-22.681,21.423C265.834,96.872,258.274,89.735,258.274,75.449L258.274,75.449z"/><path d="M323.265,41.978v48.795h28.515v5.716h-35.563V41.978L323.265,41.978L323.265,41.978z"/><path d="M361.958,96.491h-7.317l27.102-61.706l27.1,61.706h-7.815l-7.051-17.155h-18.03l1.946-5.716h13.72l-10.176-24.705   L361.958,96.491z"/><path d="M416.278,96.492V41.981h23.254c10.37,0,15.55,4.357,15.55,13.075c0,7.089-5.065,12.34-15.206,15.741l18.715,25.695h-9.305   l-17.34-24.51v-4.613c10.418-1.656,15.63-5.654,15.63-12.009c0-5.03-2.899-7.546-8.695-7.546h-15.553v48.679h-7.05V96.492z"/><path d="M485.009,41.978v38.807c0,10.473-6.164,15.704-18.49,15.704v-5.716c7.624,0,11.439-3.333,11.439-9.988   V41.978H485.009z" fill="#B52E31"/><path d="M497.587,94.583v-6.481c5.719,2.031,11.893,3.053,18.528,3.053c9.376,0,14.068-3.431,14.068-10.295   c0-5.839-3.459-8.765-10.37-8.765h-7.016c-11.409,0-17.119-4.954-17.119-14.867c0-10.418,7.308-15.632,21.926-15.632   c6.352,0,12.259,0.768,17.725,2.291v6.481c-5.466-2.035-11.373-3.053-17.725-3.053c-9.913,0-14.867,3.305-14.867,9.912   c0,5.842,3.35,8.766,10.06,8.766h7.016c11.61,0,17.421,4.958,17.421,14.867c0,10.674-7.037,16.011-21.119,16.011   C509.48,96.87,503.305,96.106,497.587,94.583L497.587,94.583z" fill="#B52E31"/><path d="M418.991,127.765h1.498v-1.236c0.344,0.463,0.668,0.8,0.97,1.01c0.507,0.355,1.129,0.532,1.866,0.532   c1.316,0,2.346-0.505,3.089-1.516c0.741-1.011,1.113-2.28,1.113-3.807c0-1.612-0.376-2.832-1.126-3.659   c-0.752-0.827-1.732-1.241-2.94-1.241c-0.58,0-1.117,0.122-1.612,0.365c-0.496,0.244-0.922,0.597-1.278,1.06v-4.809h-1.579   L418.991,127.765L418.991,127.765z M423.224,126.637c-1.171,0-1.971-0.532-2.4-1.597c-0.229-0.565-0.344-1.302-0.344-2.211   c0-1.257,0.28-2.159,0.838-2.707c0.559-0.547,1.209-0.821,1.952-0.821c0.85,0,1.495,0.334,1.932,1.001s0.656,1.51,0.656,2.526   c0,1.143-0.218,2.063-0.656,2.761C424.763,126.288,424.103,126.637,423.224,126.637L423.224,126.637L423.224,126.637z    M432.836,125.972l-2.589-7.871h-1.841l3.573,9.947c-0.084,0.216-0.218,0.546-0.404,0.99s-0.295,0.69-0.325,0.738   c-0.096,0.144-0.215,0.265-0.355,0.365c-0.141,0.099-0.362,0.149-0.663,0.149c-0.096,0-0.207-0.009-0.332-0.027   c-0.126-0.018-0.331-0.066-0.614-0.144v1.48c0.18,0.048,0.332,0.081,0.456,0.099c0.123,0.018,0.299,0.027,0.528,0.027   c0.937,0,1.599-0.271,1.983-0.812c0.383-0.541,1.045-2.044,1.982-4.507c0.397-1.047,0.89-2.401,1.48-4.062   c0.788-2.208,1.296-3.623,1.525-4.242h-1.796L432.836,125.972L432.836,125.972z"/><path d="M71.663,0L8,22.405l10.06,83.409l53.671,29.499l53.947-29.899l10.057-83.406L71.663,0z" fill="#B2B2B2"/><path d="M129.385,26.828L71.515,7.094v121.17l48.498-26.84L129.385,26.828z" fill="#B52E31"/><path d="M15.144,27.184l8.62,74.597l47.749,26.484V7.092L15.144,27.184z" fill="#E23237"/><path d="M84.928,67.362L71.62,39.571L59.904,67.363h25.024V67.362z M90.002,79.049H54.725l-7.892,19.74   l-14.68,0.271l39.362-87.566l40.734,87.566H98.642L90.002,79.049z" fill="#F2F2F2"/><path d="M71.515,11.494L71.62,39.57l13.295,27.814h-13.37l-0.03,11.647l18.487,0.018l8.641,20.015l14.047,0.261   L71.515,11.494z" fill="#B2B2B2"/></g><g><g><path d="M475.155,127.242c-4.774,0-7.32-3.732-7.32-7.101c0-3.941,3.209-7.312,7.772-7.312c4.414,0,7.175,3.46,7.175,7.101    C482.782,123.48,480.052,127.242,475.155,127.242z M478.937,124.795c0.723-0.95,0.9-2.136,0.9-3.31    c0-2.62-1.261-7.625-4.978-7.625c-0.992,0-1.979,0.385-2.699,1.014c-1.171,1.041-1.382,2.35-1.382,3.632    c0,2.953,1.471,7.811,5.095,7.811C477.049,126.318,478.246,125.753,478.937,124.795z"/><linearGradient gradientTransform="matrix(1 0 0 -1 0 175.89)" gradientUnits="userSpaceOnUse" id="SVGID_1_" x1="475.3085" x2="475.3085" y1="65.4186" y2="55.9265"><stop offset="0" style="stop-color:#FFFFFF;stop-opacity:0.15"/><stop offset="1" style="stop-color:#FFFFFF;stop-opacity:0"/></linearGradient><path d="M475.155,127.242c-4.774,0-7.32-3.732-7.32-7.101c0-3.941,3.209-7.312,7.772-7.312    c4.414,0,7.175,3.46,7.175,7.101C482.782,123.48,480.052,127.242,475.155,127.242z M478.937,124.795    c0.723-0.95,0.9-2.136,0.9-3.31c0-2.62-1.261-7.625-4.978-7.625c-0.992,0-1.979,0.385-2.699,1.014    c-1.171,1.041-1.382,2.35-1.382,3.632c0,2.953,1.471,7.811,5.095,7.811C477.049,126.318,478.246,125.753,478.937,124.795z" fill="url(#SVGID_1_)"/></g><g><path d="M520.425,126.825l0.889-0.887l-1.656-0.206c-0.42-0.051-0.726-0.401-0.726-0.83v-17.589c0-0.217,0.086-0.419,0.229-0.564    l1.096-1.093h-4.962l-1.283,1.282h1.923v18.231c0,0.22-0.089,0.42-0.231,0.565l-1.094,1.092h5.815V126.825z"/><linearGradient gradientTransform="matrix(1 0 0 -1 0 175.89)" gradientUnits="userSpaceOnUse" id="SVGID_2_" x1="517.663" x2="517.663" y1="73.8326" y2="62.0832"><stop offset="0" style="stop-color:#FFFFFF;stop-opacity:0.15"/><stop offset="1" style="stop-color:#FFFFFF;stop-opacity:0"/></linearGradient><path d="M520.425,126.825l0.889-0.887l-1.656-0.206    c-0.42-0.051-0.726-0.401-0.726-0.83v-17.589c0-0.217,0.086-0.419,0.229-0.564l1.096-1.093h-4.962l-1.283,1.282h1.923v18.231    c0,0.22-0.089,0.42-0.231,0.565l-1.094,1.092h5.815V126.825z" enable-background="new    " fill="url(#SVGID_2_)" opacity="0.5"/></g><g><path d="M530.578,125.692c-2.665,0-5.119-1.923-5.998-5.336l9.209-3.722c-0.496-1.775-1.892-3.804-5.524-3.804    c-2.995,0-6.652,2.278-6.652,6.921c0,3.657,2.449,7.492,7.117,7.492c0.969,0,2.483-0.061,4.027-1.17    c0.588-0.408,1.081-0.898,1.494-1.44C533.22,125.142,532.124,125.692,530.578,125.692z M527.712,113.846    c1.636,0,2.998,1.355,2.998,2.554c0,0.42-0.3,0.601-0.876,0.811l-5.462,2.214C523.525,114.914,526.472,113.846,527.712,113.846z"/><linearGradient gradientTransform="matrix(1 0 0 -1 0 175.89)" gradientUnits="userSpaceOnUse" id="SVGID_3_" x1="527.932" x2="527.932" y1="65.4186" y2="55.9265"><stop offset="0" style="stop-color:#FFFFFF;stop-opacity:0.15"/><stop offset="1" style="stop-color:#FFFFFF;stop-opacity:0"/></linearGradient><path d="M530.578,125.692c-2.665,0-5.119-1.923-5.998-5.336l9.209-3.722    c-0.496-1.775-1.892-3.804-5.524-3.804c-2.995,0-6.652,2.278-6.652,6.921c0,3.657,2.449,7.492,7.117,7.492    c0.969,0,2.483-0.061,4.027-1.17c0.588-0.408,1.081-0.898,1.494-1.44C533.22,125.142,532.124,125.692,530.578,125.692z     M527.712,113.846c1.636,0,2.998,1.355,2.998,2.554c0,0.42-0.3,0.601-0.876,0.811l-5.462,2.214    C523.525,114.914,526.472,113.846,527.712,113.846z" fill="url(#SVGID_3_)"/></g><g><path d="M491.619,127.242c-4.774,0-7.318-3.732-7.318-7.101c0-3.941,3.206-7.312,7.77-7.312c4.415,0,7.177,3.46,7.177,7.101    C499.247,123.48,496.517,127.242,491.619,127.242z M495.402,124.795c0.723-0.95,0.901-2.136,0.901-3.31    c0-2.62-1.26-7.625-4.979-7.625c-0.991,0-1.977,0.385-2.699,1.014c-1.169,1.041-1.382,2.35-1.382,3.632    c0,2.953,1.471,7.811,5.094,7.811C493.514,126.318,494.711,125.753,495.402,124.795z"/><linearGradient gradientTransform="matrix(1 0 0 -1 0 175.89)" gradientUnits="userSpaceOnUse" id="SVGID_4_" x1="491.7745" x2="491.7745" y1="65.3042" y2="53.3208"><stop offset="0" style="stop-color:#FFFFFF;stop-opacity:0.15"/><stop offset="1" style="stop-color:#FFFFFF;stop-opacity:0"/></linearGradient><path d="M491.619,127.242c-4.774,0-7.318-3.732-7.318-7.101c0-3.941,3.206-7.312,7.77-7.312    c4.415,0,7.177,3.46,7.177,7.101C499.247,123.48,496.517,127.242,491.619,127.242z M495.402,124.795    c0.723-0.95,0.901-2.136,0.901-3.31c0-2.62-1.26-7.625-4.979-7.625c-0.991,0-1.977,0.385-2.699,1.014    c-1.169,1.041-1.382,2.35-1.382,3.632c0,2.953,1.471,7.811,5.094,7.811C493.514,126.318,494.711,125.753,495.402,124.795z" fill="url(#SVGID_4_)"/></g><g><path d="M511.232,125.974l-1.092-0.846c-0.333-0.273-0.801-0.635-0.801-1.303c0-0.672,0.433-1.185,0.824-1.487    c1.306-1.015,2.556-2.097,2.556-4.337c0-2.039-1.23-3.229-1.996-3.901h1.695l1.274-1.271h-6.236c-4.356,0-6.574,2.714-6.574,5.724    c0,2.331,1.768,4.807,4.959,4.807c0.256,0,0.901,0,0.901,0c-0.115,0.323-0.236,0.689-0.236,1.11c0,0.938,0.442,1.427,0.905,1.947    c-1.368,0.09-3.92,0.351-5.802,1.5c-1.792,1.068-2.331,2.611-2.331,3.701c0,2.249,2.156,4.374,6.553,4.374    c5.224,0,7.943-2.913,7.943-5.765C513.774,128.126,512.566,127.099,511.232,125.974z M507.368,122.468    c-2.494,0-3.85-3.1-3.85-5.455c0-2.238,1.327-3.232,2.716-3.232c2.67,0,4.052,3.471,4.052,5.58    C510.286,121.965,508.196,122.468,507.368,122.468z M507.329,134.663c-3.246,0-5.346-1.553-5.346-3.71    c0-2.151,1.944-2.883,2.612-3.126c1.272-0.429,2.914-0.485,3.191-0.485c0.298,0,0.449,0.002,0.691,0.029    c2.312,1.65,3.311,2.462,3.311,4.01C511.788,133.11,510.237,134.663,507.329,134.663z"/><radialGradient cx="879.7436" cy="-100.5522" gradientTransform="matrix(0.482 0 0 -0.482 78.2489 66.3183)" gradientUnits="userSpaceOnUse" id="SVGID_5_" r="44.9221"><stop offset="0" style="stop-color:#FFFFFF;stop-opacity:0.08"/><stop offset="1" style="stop-color:#FFFFFF;stop-opacity:0"/></radialGradient><path d="M511.232,125.974l-1.092-0.846c-0.333-0.273-0.801-0.635-0.801-1.303    c0-0.672,0.433-1.185,0.824-1.487c1.306-1.015,2.556-2.097,2.556-4.337c0-2.039-1.23-3.229-1.996-3.901h1.695l1.274-1.271h-6.236    c-4.356,0-6.574,2.714-6.574,5.724c0,2.331,1.768,4.807,4.959,4.807c0.256,0,0.901,0,0.901,0c-0.115,0.323-0.236,0.689-0.236,1.11    c0,0.938,0.442,1.427,0.905,1.947c-1.368,0.09-3.92,0.351-5.802,1.5c-1.792,1.068-2.331,2.611-2.331,3.701    c0,2.249,2.156,4.374,6.553,4.374c5.224,0,7.943-2.913,7.943-5.765C513.774,128.126,512.566,127.099,511.232,125.974z     M507.368,122.468c-2.494,0-3.85-3.1-3.85-5.455c0-2.238,1.327-3.232,2.716-3.232c2.67,0,4.052,3.471,4.052,5.58    C510.286,121.965,508.196,122.468,507.368,122.468z M507.329,134.663c-3.246,0-5.346-1.553-5.346-3.71    c0-2.151,1.944-2.883,2.612-3.126c1.272-0.429,2.914-0.485,3.191-0.485c0.298,0,0.449,0.002,0.691,0.029    c2.312,1.65,3.311,2.462,3.311,4.01C511.788,133.11,510.237,134.663,507.329,134.663z" fill="url(#SVGID_5_)"/></g><g><path d="M459.698,118.912l-1.283,1.284h3.85v5.414c-0.884,0.288-2.305,0.6-4.458,0.6c-5.804,0-10.009-5.118-10.009-10.863    c0-5.238,3.447-8.912,8.178-8.912c2.746,0,4.663,0.891,6.289,2.434v1.77l2.929-2.93c-0.672-0.461-1.859-1.238-3.959-1.855    c-1.355-0.397-2.955-0.601-4.596-0.601c-7.94,0-12.103,5.831-12.103,10.951c0,7.358,5.381,11.343,11.606,11.343    c4.309,0,7.692-0.975,9.117-1.368v-5.608c0-0.218,0.086-0.423,0.228-0.563l1.098-1.096L459.698,118.912L459.698,118.912z"/><radialGradient cx="769.4207" cy="-84.682" gradientTransform="matrix(0.482 0 0 -0.482 78.2489 66.3183)" gradientUnits="userSpaceOnUse" id="SVGID_6_" r="50.0413"><stop offset="0" style="stop-color:#FFFFFF;stop-opacity:0.08"/><stop offset="1" style="stop-color:#FFFFFF;stop-opacity:0"/></radialGradient><path d="M459.698,118.912l-1.283,1.284h3.85v5.414c-0.884,0.288-2.305,0.6-4.458,0.6    c-5.804,0-10.009-5.118-10.009-10.863c0-5.238,3.447-8.912,8.178-8.912c2.746,0,4.663,0.891,6.289,2.434v1.77l2.929-2.93    c-0.672-0.461-1.859-1.238-3.959-1.855c-1.355-0.397-2.955-0.601-4.596-0.601c-7.94,0-12.103,5.831-12.103,10.951    c0,7.358,5.381,11.343,11.606,11.343c4.309,0,7.692-0.975,9.117-1.368v-5.608c0-0.218,0.086-0.423,0.228-0.563l1.098-1.096    L459.698,118.912L459.698,118.912z" fill="url(#SVGID_6_)"/></g><g><g><path d="M534.326,113.034h0.641v1.71h0.214v-1.71h0.64v-0.215h-1.494L534.326,113.034L534.326,113.034z M537.662,112.819     l-0.665,1.627l-0.662-1.627h-0.3v1.925h0.214v-1.605l0.668,1.605h0.161l0.667-1.605v1.605h0.215v-1.925H537.662z"/></g></g><rect fill="none" height="56.667" width="117.608" x="430.617" y="91.221"/></g></svg>