<?xml version="1.0" ?><!DOCTYPE svg  PUBLIC '-//W3C//DTD SVG 1.1//EN'  'http://www.w3.org/Graphics/SVG/1.1/DTD/svg11.dtd'><svg enable-background="new 0 0 64 64" height="64px" id="HTML5" version="1.1" viewBox="0 0 64 64" width="64px" xml:space="preserve" xmlns="http://www.w3.org/2000/svg" xmlns:xlink="http://www.w3.org/1999/xlink"><linearGradient gradientTransform="matrix(1 0 0 1 -1096 -1454)" gradientUnits="userSpaceOnUse" id="Circle_Shadow_1_" x1="1160.0293" x2="1128.0292" y1="1517.999" y2="1485.999"><stop offset="0.3163" style="stop-color:#FFFFFF;stop-opacity:0"/><stop offset="0.3508" style="stop-color:#E9E9E9;stop-opacity:0.0504"/><stop offset="0.4543" style="stop-color:#ACACAC;stop-opacity:0.2018"/><stop offset="0.5572" style="stop-color:#787878;stop-opacity:0.3523"/><stop offset="0.6569" style="stop-color:#4D4D4D;stop-opacity:0.4981"/><stop offset="0.7528" style="stop-color:#2B2B2B;stop-opacity:0.6385"/><stop offset="0.8441" style="stop-color:#131313;stop-opacity:0.7719"/><stop offset="0.9286" style="stop-color:#050505;stop-opacity:0.8956"/><stop offset="1" style="stop-color:#000000"/></linearGradient><polygon enable-background="new    " fill="url(#Circle_Shadow_1_)" id="Circle_Shadow" opacity="0.2" points="64.029,64   64.029,30.059 49,15.029 15.059,48.971 30.088,64 "/><circle cx="32" cy="32" fill="#F16529" id="Circle" r="24"/><g id="Shadow"><g><defs><circle cx="32.029" cy="32" id="SVGID_1_" r="24"/></defs><clipPath id="SVGID_2_"><use overflow="visible" xlink:href="#SVGID_1_"/></clipPath><linearGradient gradientTransform="matrix(1 0 0 -1 -274 -299)" gradientUnits="userSpaceOnUse" id="SVGID_3_" x1="349.0596" x2="294.0406" y1="-373.9971" y2="-318.9781"><stop offset="0.5255" style="stop-color:#000000;stop-opacity:0"/><stop offset="1" style="stop-color:#000000"/></linearGradient><polygon clip-path="url(#SVGID_2_)" enable-background="new    " fill="url(#SVGID_3_)" opacity="0.3" points="74.913,55.027     74.923,54.922 74.807,54.922 74.816,54.814 74.7,54.814 74.71,54.709 74.594,54.709 74.604,54.604 74.486,54.604 74.497,54.497     74.381,54.497 74.391,54.391 74.273,54.391 74.284,54.284 74.168,54.284 74.178,54.178 74.063,54.178 74.07,54.07 73.955,54.07     73.965,53.965 73.85,53.965 73.857,53.859 73.743,53.859 73.753,53.753 73.637,53.753 73.646,53.646 73.529,53.646 73.54,53.54     73.423,53.54 73.434,53.434 73.316,53.434 73.327,53.327 73.211,53.327 73.221,53.221 73.104,53.221 73.113,53.115 72.998,53.115     73.006,53.027 73.029,53.027 73.029,51.688 72.923,51.688 72.923,51.581 72.816,51.581 72.816,51.475 72.71,51.475 72.71,51.368     72.604,51.368 72.604,51.264 72.497,51.264 72.497,51.156 72.391,51.156 72.391,51.05 72.284,51.05 72.284,50.943 72.178,50.943     72.178,50.837 72.07,50.837 72.07,50.73 71.965,50.73 71.965,50.624 71.859,50.624 71.859,50.52 71.752,50.52 71.752,50.411     71.646,50.411 71.646,50.307 71.539,50.307 71.539,50.199 71.434,50.199 71.434,50.093 71.327,50.093 71.327,49.986     71.221,49.986 71.221,49.881 71.123,49.881 71.123,48.973 71.018,48.973 71.018,48.865 70.91,48.865 70.91,48.759 70.805,48.759     70.805,48.652 70.697,48.652 70.697,48.547 70.591,48.547 70.591,48.439 70.484,48.439 70.484,48.334 70.378,48.334     70.378,48.229 70.271,48.229 70.271,48.121 70.165,48.121 70.165,48.016 70.059,48.016 70.059,47.908 69.952,47.908     69.952,47.802 69.848,47.802 69.848,47.695 69.74,47.695 69.74,47.59 69.634,47.59 69.634,47.482 69.525,47.482 69.525,47.377     69.42,47.377 69.42,47.271 69.314,47.271 69.314,47.164 69.208,47.164 69.208,47.059 69.102,47.059 69.102,46.952 68.995,46.952     68.995,46.846 68.889,46.846 68.889,46.739 68.782,46.739 68.782,46.633 68.676,46.633 68.676,46.525 68.568,46.525 68.568,46.42     68.463,46.42 68.463,46.313 68.355,46.313 68.355,46.207 68.25,46.207 68.25,46.102 68.145,46.102 68.145,45.995 68.037,45.995     68.037,45.889 67.932,45.889 67.932,45.782 67.824,45.782 67.824,45.676 67.718,45.676 67.718,45.57 67.611,45.57 67.611,45.464     67.505,45.464 67.505,45.357 67.398,45.357 67.398,45.251 67.293,45.251 67.293,45.145 67.186,45.145 67.186,45.038     67.079,45.038 67.079,44.932 66.973,44.932 66.973,44.825 66.866,44.825 66.866,44.719 66.762,44.719 66.762,44.613     66.654,44.613 66.654,44.507 66.548,44.507 66.548,44.4 66.441,44.4 66.441,44.294 66.334,44.294 66.334,44.188 66.229,44.188     66.229,44.082 66.122,44.082 66.122,43.977 66.016,43.977 66.016,43.869 65.909,43.869 65.909,43.762 65.803,43.762     65.803,43.656 65.695,43.656 65.695,43.55 65.59,43.55 65.59,43.443 65.482,43.443 65.482,43.337 65.377,43.337 65.377,43.23     65.271,43.23 65.271,43.125 65.164,43.125 65.164,43.02 65.059,43.02 65.059,42.912 64.951,42.912 64.951,42.807 64.846,42.807     64.846,42.699 64.738,42.699 64.738,42.593 64.632,42.593 64.632,42.486 64.525,42.486 64.525,42.381 64.419,42.381     64.419,42.273 64.313,42.273 64.313,42.168 64.207,42.168 64.207,42.063 64.1,42.063 64.1,41.955 63.993,41.955 63.993,41.85     63.887,41.85 63.887,41.742 63.781,41.742 63.781,41.636 63.675,41.636 63.675,41.529 63.568,41.529 63.568,41.424 63.462,41.424     63.462,41.316 63.355,41.316 63.355,41.211 63.249,41.211 63.249,41.104 63.143,41.104 63.143,40.998 63.036,40.998     63.036,40.893 62.93,40.893 62.93,40.785 62.823,40.785 62.823,40.68 62.717,40.68 62.717,40.573 62.609,40.573 62.609,40.467     62.504,40.467 62.504,40.359 62.396,40.359 62.396,40.254 62.291,40.254 62.291,40.146 62.186,40.146 62.186,40.041     62.078,40.041 62.078,39.936 61.973,39.936 61.973,39.829 61.865,39.829 61.865,39.723 61.76,39.723 61.76,39.616 61.652,39.616     61.652,39.51 61.546,39.51 61.546,39.402 61.439,39.402 61.439,39.297 61.333,39.297 61.333,39.191 61.229,39.191 61.229,39.084     61.121,39.084 61.121,38.979 61.014,38.979 61.014,38.872 60.908,38.872 60.908,38.766 60.801,38.766 60.801,38.659     60.695,38.659 60.695,38.553 60.589,38.553 60.589,38.447 60.482,38.447 60.482,38.341 60.375,38.341 60.375,38.234 60.27,38.234     60.27,38.128 60.163,38.128 60.163,38.021 60.057,38.021 60.057,37.915 59.95,37.915 59.95,37.809 59.844,37.809 59.844,37.702     59.736,37.702 59.736,37.596 59.631,37.596 59.631,37.49 59.523,37.49 59.523,37.384 59.418,37.384 59.418,37.277 59.313,37.277     59.313,37.171 59.205,37.171 59.205,37.064 59.1,37.064 59.1,36.959 58.992,36.959 58.992,36.854 58.887,36.854 58.887,36.746     58.779,36.746 58.779,36.641 58.674,36.641 58.674,36.533 58.566,36.533 58.566,36.427 58.461,36.427 58.461,36.32 58.354,36.32     58.354,36.214 58.247,36.214 58.247,36.107 58.143,36.107 58.143,36.002 58.035,36.002 58.035,35.896 57.928,35.896     57.928,35.789 57.822,35.789 57.822,35.684 57.716,35.684 57.716,35.576 57.609,35.576 57.609,35.471 57.503,35.471     57.503,35.364 57.396,35.364 57.396,35.258 57.29,35.258 57.29,35.15 57.184,35.15 57.184,35.045 57.077,35.045 57.077,34.938     56.971,34.938 56.971,34.832 56.863,34.832 56.863,34.727 56.758,34.727 56.758,34.619 56.65,34.619 56.65,34.514 56.545,34.514     56.545,34.407 56.438,34.407 56.438,34.301 56.332,34.301 56.332,34.193 56.227,34.193 56.227,34.088 56.119,34.088     56.119,33.982 56.014,33.982 56.014,33.875 55.906,33.875 55.906,33.77 55.8,33.77 55.8,33.663 55.693,33.663 55.693,33.557     55.588,33.557 55.588,33.45 55.48,33.45 55.48,33.344 55.375,33.344 55.375,33.236 55.268,33.236 55.268,33.131 55.162,33.131     55.162,33.025 55.055,33.025 55.055,32.918 54.949,32.918 54.949,32.813 54.843,32.813 54.843,32.706 54.736,32.706 54.736,32.6     54.629,32.6 54.629,32.493 54.523,32.493 54.523,32.387 54.417,32.387 54.417,32.281 54.311,32.281 54.311,32.175 54.203,32.175     54.203,32.068 54.098,32.068 54.098,31.962 53.991,31.962 53.991,31.856 53.885,31.856 53.885,31.749 53.777,31.749     53.777,31.643 53.672,31.643 53.672,31.537 53.564,31.537 53.564,31.431 53.459,31.431 53.459,31.324 53.354,31.324     53.354,31.218 53.246,31.218 53.246,31.111 53.141,31.111 53.141,31.005 53.033,31.005 53.033,30.898 52.927,30.898     52.927,30.792 52.82,30.792 52.82,30.686 52.715,30.686 52.715,30.58 52.607,30.58 52.607,30.474 52.501,30.474 52.501,30.367     52.395,30.367 52.395,30.261 52.289,30.261 52.289,30.154 52.184,30.154 52.184,30.048 52.076,30.048 52.076,29.941     51.969,29.941 51.969,29.835 51.863,29.835 51.863,29.729 51.756,29.729 51.756,29.623 51.65,29.623 51.65,29.516 51.544,29.516     51.544,29.41 51.438,29.41 51.438,29.304 51.331,29.304 51.331,29.197 51.225,29.197 51.225,29.091 51.118,29.091 51.118,28.985     51.012,28.985 51.012,28.879 50.904,28.879 50.904,28.772 50.799,28.772 50.799,28.666 50.691,28.666 50.691,28.56 50.586,28.56     50.586,28.454 50.479,28.454 50.479,28.347 50.373,28.347 50.373,28.24 50.268,28.24 50.268,28.135 50.16,28.135 50.16,28.028     50.055,28.028 50.055,27.922 49.947,27.922 49.947,27.815 49.842,27.815 49.842,27.709 49.734,27.709 49.734,27.603     49.628,27.603 49.628,27.497 49.521,27.497 49.521,27.39 49.416,27.39 49.416,27.284 49.311,27.284 49.311,27.178 49.203,27.178     49.203,27.071 49.096,27.071 49.096,26.965 48.99,26.965 48.99,26.859 48.884,26.859 48.884,26.753 48.777,26.753 48.777,26.646     48.67,26.646 48.67,26.54 48.564,26.54 48.564,26.434 48.458,26.434 48.458,26.328 48.352,26.328 48.352,26.221 48.245,26.221     48.245,26.114 48.139,26.114 48.139,26.009 48.032,26.009 48.032,25.902 47.926,25.902 47.926,25.795 47.818,25.795     47.818,25.689 47.713,25.689 47.713,25.583 47.607,25.583 47.607,25.477 47.5,25.477 47.5,25.371 47.395,25.371 47.395,25.264     47.287,25.264 47.287,25.157 47.182,25.157 47.182,25.052 47.074,25.052 47.074,24.945 46.968,24.945 46.968,24.839     46.861,24.839 46.861,24.732 46.755,24.732 46.755,24.626 46.648,24.626 46.648,24.521 46.543,24.521 46.543,24.414     46.436,24.414 46.436,24.307 46.33,24.307 46.33,24.201 46.225,24.201 46.225,24.095 46.117,24.095 46.117,23.988 46.012,23.988     46.012,23.882 45.904,23.882 45.904,23.775 45.798,23.775 45.798,23.669 45.691,23.669 45.691,23.563 45.584,23.563     45.584,23.457 45.479,23.457 45.479,23.351 45.372,23.351 45.372,23.244 45.266,23.244 45.266,23.138 45.159,23.138     45.159,23.031 45.053,23.031 45.053,22.925 44.945,22.925 44.945,22.819 44.84,22.819 44.84,22.712 44.732,22.712 44.732,22.606     44.627,22.606 44.627,22.5 44.521,22.5 44.521,22.394 44.414,22.394 44.414,22.288 44.309,22.288 44.309,22.181 44.201,22.181     44.201,22.074 44.096,22.074 44.096,21.969 43.988,21.969 43.988,21.862 43.882,21.862 43.882,21.755 43.775,21.755 43.775,21.65     43.67,21.65 43.67,21.543 43.563,21.543 43.563,21.437 43.457,21.437 43.457,21.331 43.35,21.331 43.35,21.224 43.244,21.224     43.244,21.118 43.139,21.118 43.139,21.012 43.031,21.012 43.031,20.905 42.925,20.905 42.925,20.799 42.818,20.799     42.818,20.693 42.712,20.693 42.712,20.586 42.605,20.586 42.605,20.48 42.498,20.48 42.498,20.374 42.393,20.374 42.393,20.268     42.286,20.268 42.286,20.161 42.18,20.161 42.18,20.055 42.073,20.055 42.073,19.949 41.967,19.949 41.967,19.842 41.859,19.842     41.859,19.736 41.754,19.736 41.754,19.629 41.646,19.629 41.646,19.523 41.541,19.523 41.541,19.417 41.436,19.417     41.436,19.311 41.328,19.311 41.328,19.204 41.223,19.204 41.223,19.098 41.116,19.098 41.116,18.992 41.009,18.992     41.009,18.885 40.902,18.885 40.902,18.779 40.796,18.779 40.796,18.673 40.689,18.673 40.689,18.566 40.584,18.566 40.584,18.46     40.479,18.46 40.479,18.354 40.371,18.354 40.371,18.248 40.266,18.248 40.266,18.141 40.158,18.141 40.158,18.035 40.051,18.035     40.051,17.928 39.943,17.928 39.943,17.822 39.839,17.822 39.839,17.716 39.732,17.716 39.732,17.609 39.626,17.609     39.626,17.503 39.52,17.503 39.52,17.397 39.413,17.397 39.413,17.291 39.307,17.291 39.307,17.184 39.2,17.184 39.2,17.078     39.094,17.078 39.094,16.972 37.738,16.972 37.738,17.716 37.639,17.716 37.639,17.609 37.532,17.609 37.532,17.503     37.426,17.503 37.426,17.397 37.318,17.397 37.318,17.291 37.213,17.291 37.213,17.184 37.105,17.184 37.105,17.078 37,17.078     37,16.972 35.585,16.972 34.925,18.057 34.912,18.035 34.87,18.035 34.805,17.928 34.764,17.928 34.699,17.822 34.657,17.822     34.593,17.716 34.552,17.716 34.486,17.609 34.443,17.609 34.38,17.503 34.338,17.503 34.273,17.397 34.232,17.397 34.167,17.291     34.125,17.291 34.061,17.184 34.02,17.184 33.954,17.078 33.912,17.078 33.848,16.972 32.435,16.972 32.435,17.716 32.38,17.716     32.38,17.609 32.273,17.609 32.273,17.503 32.167,17.503 32.167,17.397 32.061,17.397 32.061,17.291 31.954,17.291 31.954,17.184     31.848,17.184 31.848,17.078 31.741,17.078 31.741,16.972 28,16.972 28,18.035 27.958,18.035 27.958,17.928 27.851,17.928     27.851,17.822 27.745,17.822 27.745,17.716 27.639,17.716 27.639,17.609 27.532,17.609 27.532,17.503 27.426,17.503     27.426,17.397 27.319,17.397 27.319,17.291 27.213,17.291 27.213,17.184 27.106,17.184 27.106,17.078 27,17.078 27,16.972     25.643,16.972 25.643,18.248 25.573,18.248 25.573,18.141 25.467,18.141 25.467,18.035 25.36,18.035 25.36,17.928 25.254,17.928     25.254,17.822 25.148,17.822 25.148,17.716 25.042,17.716 25.042,17.609 24.935,17.609 24.935,17.503 24.829,17.503     24.829,17.397 24.722,17.397 24.722,17.291 24.616,17.291 24.616,17.184 24.509,17.184 24.509,17.078 24.403,17.078     24.403,16.972 23.048,16.972 23.048,21.028 23.154,21.028 23.154,21.134 23.261,21.134 23.261,21.241 23.367,21.241     23.367,21.347 23.474,21.347 23.474,21.454 23.58,21.454 23.58,21.56 23.687,21.56 23.687,21.666 23.793,21.666 23.793,21.772     23.899,21.772 23.899,21.878 24.005,21.878 24.005,21.985 24.112,21.985 24.112,22.092 24.218,22.092 24.218,22.198     24.325,22.198 24.325,22.305 24.431,22.305 24.431,22.411 24.538,22.411 24.538,22.517 24.645,22.517 24.645,22.623 24.75,22.623     24.75,22.729 24.856,22.729 24.856,22.835 24.963,22.835 24.963,22.942 25.07,22.942 25.07,23.028 21,23.028 23,45.027     23.099,45.051 23.106,45.135 23.205,45.156 23.213,45.241 23.312,45.264 23.319,45.348 23.418,45.37 23.426,45.454 23.524,45.477     23.532,45.561 23.631,45.582 23.639,45.666 23.737,45.688 23.745,45.771 23.843,45.795 23.851,45.879 23.95,45.9 23.958,45.984     24.056,46.008 24.064,46.092 24.163,46.114 24.171,46.198 24.27,46.221 24.277,46.305 24.375,46.326 24.383,46.41 24.482,46.432     24.49,46.518 24.589,46.539 24.597,46.623 24.694,46.645 24.702,46.729 24.801,46.752 24.809,46.836 24.908,46.857 24.916,46.941     25.015,46.965 25.022,47.048 25.121,47.07 25.128,47.154 25.227,47.176 25.234,47.261 25.333,47.283 25.341,47.367 25.44,47.391     25.448,47.475 25.546,47.495 25.554,47.579 25.652,47.602 25.66,47.688 25.759,47.709 25.767,47.793 25.865,47.814 25.873,47.898     25.972,47.921 25.98,48.005 26.078,48.025 26.086,48.111 26.185,48.133 26.192,48.218 26.291,48.24 26.299,48.324 26.397,48.346     26.405,48.43 26.503,48.451 26.511,48.536 26.61,48.559 26.618,48.645 26.716,48.665 26.724,48.749 26.823,48.771 26.831,48.855     26.93,48.877 26.938,48.962 27.036,48.982 27.043,49.068 27.143,49.091 27.15,49.175 27.249,49.195 27.256,49.279 27.355,49.303     27.363,49.387 27.461,49.408 27.469,49.493 27.568,49.516 27.576,49.6 27.674,49.621 27.682,49.706 27.781,49.729 27.789,49.813     27.887,49.834 27.895,49.919 27.994,49.941 28.001,50.025 28.1,50.047 28.107,50.131 28.206,50.152 28.214,50.236 28.313,50.26     28.32,50.344 28.419,50.366 28.427,50.45 28.525,50.473 28.533,50.557 28.632,50.578 28.64,50.663 28.738,50.686 28.746,50.77     28.845,50.791 28.853,50.876 28.951,50.898 28.959,50.98 29.057,51.003 29.065,51.088 29.164,51.109 29.172,51.193 29.271,51.217     29.278,51.301 29.377,51.322 29.385,51.407 29.483,51.43 29.491,51.514 29.59,51.535 29.598,51.62 29.696,51.643 29.704,51.727     29.802,51.748 29.81,51.832 29.908,51.854 29.916,51.938 30.015,51.961 30.023,52.045 30.122,52.066 30.13,52.15 30.228,52.173     30.236,52.258 30.335,52.279 30.342,52.363 30.441,52.385 30.449,52.471 30.547,52.492 30.555,52.577 30.653,52.6 30.661,52.684     30.76,52.705 30.768,52.789 30.866,52.811 30.874,52.896 30.973,52.918 30.981,53.002 31.08,53.023 31.088,53.107 31.186,53.13     31.193,53.215 31.292,53.236 31.3,53.32 31.398,53.342 31.406,53.428 31.505,53.449 31.513,53.533 31.611,53.555 31.619,53.641     31.718,53.662 31.726,53.746 31.824,53.768 31.832,53.854 31.931,53.875 31.939,53.959 32.037,53.98 32.045,54.064 32.144,54.086     32.151,54.171 32.25,54.193 32.258,54.277 32.356,54.299 32.364,54.385 32.463,54.406 32.471,54.49 32.568,54.512 32.576,54.596     32.676,54.618 32.684,54.703 32.782,54.725 32.79,54.811 32.889,54.832 32.896,54.915 32.994,54.938 33.002,55.021 33.102,55.044     33.109,55.128 33.208,55.15 33.216,55.234 33.314,55.256 33.322,55.34 33.42,55.361 33.428,55.445 33.525,55.469 33.534,55.553     33.634,55.575 33.643,55.66 33.738,55.682 33.747,55.766 33.846,55.787 33.854,55.872 33.953,55.895 33.961,55.979 34.059,56     34.066,56.085 34.165,56.107 34.173,56.191 34.271,56.213 34.279,56.297 34.378,56.318 34.387,56.404 34.484,56.426     34.492,56.511 34.591,56.532 34.6,56.617 34.697,56.639 34.705,56.723 34.805,56.744 34.813,56.829 34.91,56.852 34.918,56.936     35.018,56.957 35.023,57.042 35.123,57.064 35.131,57.146 35.229,57.17 35.236,57.254 35.336,57.275 35.344,57.361 35.441,57.383     35.45,57.467 35.548,57.488 35.557,57.572 35.654,57.596 35.663,57.68 35.762,57.701 35.77,57.786 35.867,57.809 35.875,57.893     35.975,57.915 35.982,57.998 36.08,58.02 36.088,58.104 36.188,58.127 36.195,58.211 36.293,58.232 36.301,58.316 36.398,58.34     36.407,58.424 36.506,58.445 36.514,58.529 36.613,58.553 36.621,58.637 36.719,58.658 36.727,58.743 36.825,58.766 36.833,58.85     36.932,58.871 36.939,58.955 37.038,58.977 37.046,59.063 37.145,59.084 37.152,59.168 37.251,59.189 37.259,59.273     37.357,59.295 37.365,59.381 37.465,59.402 37.473,59.486 37.57,59.509 37.578,59.594 37.677,59.615 37.686,59.699 37.783,59.721     37.791,59.807 37.891,59.828 37.896,59.912 37.996,59.934 38.004,60.02 38.104,60.041 38.109,60.125 38.209,60.146 38.217,60.23     38.314,60.252 38.323,60.338 38.422,60.359 38.43,60.443 38.527,60.465 38.535,60.55 38.635,60.572 38.643,60.656 38.741,60.678     38.749,60.764 38.848,60.785 38.855,60.869 38.953,60.891 38.961,60.975 39.061,60.997 39.068,61.082 39.166,61.104     39.174,61.188 39.271,61.209 39.279,61.295 39.38,61.316 39.389,61.4 39.486,61.422 39.494,61.507 39.592,61.527 39.6,61.613     39.698,61.635 39.706,61.721 39.805,61.742 39.813,61.825 39.911,61.848 39.919,61.932 40.018,61.953 40.025,62.038     40.124,62.061 40.132,62.145 40.23,62.166 40.238,62.251 40.337,62.273 40.346,62.357 40.443,62.379 40.451,62.463 40.55,62.484     40.559,62.57 40.656,62.592 40.664,62.676 40.764,62.697 40.771,62.782 40.869,62.805 40.877,62.889 40.977,62.91 40.982,62.995     41.082,63.018 41.09,63.102 41.188,63.123 41.195,63.208 41.295,63.23 41.303,63.314 41.4,63.336 41.409,63.42 41.508,63.441     41.516,63.527 41.613,63.549 41.622,63.633 41.721,63.654 41.729,63.739 41.826,63.761 41.834,63.846 41.934,63.868     41.941,63.952 42.039,63.975 42.047,64.059 42.146,64.081 42.154,64.165 42.252,64.188 42.26,64.271 42.359,64.294 42.367,64.377     42.465,64.398 42.473,64.482 42.57,64.506 42.579,64.59 42.678,64.611 42.686,64.695 42.784,64.719 42.792,64.803 42.891,64.824     42.898,64.909 42.997,64.932 43.005,65.016 43.104,65.037 43.111,65.121 43.21,65.143 43.218,65.229 43.316,65.25 43.324,65.334     43.423,65.355 43.432,65.439 43.529,65.463 43.537,65.547 43.637,65.568 43.645,65.652 43.742,65.674 43.75,65.759 43.85,65.781     43.855,65.865 43.955,65.887 43.963,65.973 44.063,65.994 44.068,66.078 44.168,66.1 44.176,66.186 44.273,66.207 44.282,66.291     44.381,66.313 44.389,66.396 44.486,66.418 44.494,66.504 44.594,66.525 44.602,66.609 44.699,66.631 44.707,66.716     44.807,66.738 44.814,66.822 44.913,66.844 44.921,66.93 45.02,66.951 45.027,67.035 45.125,67.057 45.133,67.143 45.23,67.163     45.238,67.248 45.338,67.27 45.346,67.354 45.443,67.375 45.452,67.461 45.551,67.482 45.559,67.566 45.658,67.589 45.666,67.673     45.764,67.693 45.771,67.779 45.87,67.801 45.878,67.886 45.977,67.907 45.984,67.992 46.083,68.014 46.091,68.1 46.189,68.121     46.197,68.205 46.296,68.227 46.305,68.311 46.402,68.332 46.41,68.417 46.509,68.439 46.518,68.523 46.615,68.545 46.623,68.629     46.723,68.65 46.729,68.736 46.828,68.758 46.836,68.842 46.936,68.863 46.941,68.948 47.041,68.971 47.049,69.055 47.146,69.076     47.154,69.161 47.254,69.184 47.262,69.268 47.359,69.289 47.367,69.374 47.467,69.396 47.475,69.48 47.573,69.502 47.581,69.586     47.68,69.607 47.688,69.691 47.785,69.714 47.793,69.799 47.893,69.82 47.9,69.904 47.998,69.927 48.006,70.012 48.104,70.033     48.111,70.118 48.212,70.141 48.221,70.225 48.316,70.246 48.325,70.331 48.424,70.354 48.432,70.438 48.529,70.459     48.538,70.543 48.637,70.564 48.645,70.648 48.743,70.672 48.751,70.756 48.85,70.777 48.857,70.861 48.956,70.885 48.964,70.969     49.063,70.99 49.07,71.075 49.169,71.098 49.177,71.182 49.275,71.203 49.283,71.287 49.382,71.309 49.391,71.395 49.488,71.416     49.496,71.5 49.596,71.521 49.604,71.605 49.701,71.629 49.709,71.713 49.809,71.734 49.814,71.818 49.914,71.842 49.922,71.926     50.02,71.947 50.027,72.031 50.127,72.055 50.135,72.139 50.232,72.16 50.241,72.244 50.34,72.266 50.348,72.352 50.445,72.373     50.454,72.457 50.553,72.479 50.561,72.563 50.658,72.585 50.666,72.67 50.766,72.691 50.771,72.775 50.872,72.798 50.88,72.882     50.979,72.902 50.984,72.988 51.084,73.01 51.092,73.096 51.191,73.117 51.199,73.201 51.297,73.223 51.305,73.309 51.402,73.33     51.411,73.414 51.51,73.436 51.518,73.52 51.616,73.541 51.624,73.626 51.723,73.648 51.73,73.732 51.829,73.754 51.837,73.839     51.936,73.861 51.943,73.945 52.042,73.967 52.05,74.052 52.148,74.074 52.156,74.158 52.255,74.18 52.264,74.266 52.361,74.287     52.369,74.371 52.468,74.393 52.477,74.477 52.574,74.498 52.582,74.583 52.682,74.605 52.688,74.689 52.787,74.711     52.795,74.796 52.895,74.818 52.9,74.902 53,74.924 53.008,75.009 53.105,75.031 53.113,75.115 53.213,75.137 53.221,75.223     53.318,75.243 53.326,75.327 53.426,75.35 53.434,75.434 53.532,75.455 53.54,75.54 53.639,75.563 53.646,75.646 53.745,75.669     53.753,75.752 53.852,75.773 53.859,75.857 53.957,75.88 53.965,75.965 54.063,75.986 54.07,76.07 54.17,76.094 54.178,76.178     54.275,76.199 54.284,76.284 54.383,76.307 54.391,76.391 54.488,76.412 54.497,76.497 54.596,76.52 54.604,76.604 54.702,76.625     54.71,76.709 54.809,76.73 54.816,76.814 54.915,76.837 54.923,76.923 55.021,76.945 55.029,77.027 64.029,79.027 73.029,77.027     75.029,55.027   "/></g></g><g id="HTML_5"><polygon fill="#FFFFFF" points="24.403,19.67 25.643,19.67 25.643,21.028 27,21.028 27,16.972 25.643,16.972 25.643,18.312    24.403,18.312 24.403,16.972 23.048,16.972 23.048,21.028 24.403,21.028  "/><polygon fill="#FFFFFF" points="29.192,21.028 30.549,21.028 30.549,18.317 31.741,18.317 31.741,16.972 28,16.972 28,18.317    29.192,18.317  "/><polygon fill="#FFFFFF" points="33.762,19.019 34.693,20.46 34.717,20.46 35.648,19.019 35.648,21.028 37,21.028 37,16.972    35.585,16.972 34.717,18.399 33.848,16.972 32.435,16.972 32.435,21.028 33.762,21.028  "/><polygon fill="#FFFFFF" points="41,19.688 39.094,19.688 39.094,16.972 37.738,16.972 37.738,21.028 41,21.028  "/><path d="M21,23.028l2,22l9,2l9-2l2-22H21z M38.5,30.028H32h-4l0.5,2H32h6l-1,9l-5,2l-5-2l-0.8-4H29l0.5,2l2.5,1   l2.5-1l0.5-4h-3h-6l-1-8h7h7L38.5,30.028z" fill="#FFFFFF"/></g></svg>